<?xml version="1.0" encoding="utf-8"?>
<!-- Generator: Adobe Illustrator 15.1.0, SVG Export Plug-In . SVG Version: 6.00 Build 0)  -->
<!DOCTYPE svg PUBLIC "-//W3C//DTD SVG 1.1//EN" "http://www.w3.org/Graphics/SVG/1.1/DTD/svg11.dtd" [
	<!ENTITY ns_flows "http://ns.adobe.com/Flows/1.0/">
	<!ENTITY ns_extend "http://ns.adobe.com/Extensibility/1.0/">
	<!ENTITY ns_ai "http://ns.adobe.com/AdobeIllustrator/10.0/">
	<!ENTITY ns_graphs "http://ns.adobe.com/Graphs/1.0/">
]>
<svg version="1.1" id="Layer_1" xmlns:x="&ns_extend;" xmlns:i="&ns_ai;" xmlns:graph="&ns_graphs;"
	 xmlns="http://www.w3.org/2000/svg" xmlns:xlink="http://www.w3.org/1999/xlink" xmlns:a="http://ns.adobe.com/AdobeSVGViewerExtensions/3.0/"
	 x="0px" y="0px" width="15.969px" height="10.292px" viewBox="0 0 15.969 10.292" enable-background="new 0 0 15.969 10.292"
	 xml:space="preserve">
<g>
	<path fill="#333637" d="M0.085,10.228H15.9V0.063H0.085V10.228L0.085,10.228z M15.936,10.259v-0.031V10.259L15.936,10.259z
		 M0.019,10.292V0.001h15.95v10.258v0.033H0.019L0.019,10.292z"/>
	<polygon fill="#ED1C24" points="15.936,10.259 0.052,10.259 0.052,0.033 15.936,0.033 	"/>
	<g>
		<polygon fill="#FFF200" points="3.228,1.376 3.685,2.734 5.164,2.734 3.967,3.576 4.423,4.934 3.228,4.091 2.031,4.934 
			2.487,3.576 1.292,2.734 2.77,2.734 		"/>
		<polygon fill="#FFF200" points="7.082,0.666 7.051,1.137 7.502,1.311 7.032,1.425 6.999,1.897 6.74,1.498 6.269,1.614 
			6.579,1.253 6.319,0.856 6.771,1.029 		"/>
		<polygon fill="#FFF200" points="8.743,2.188 8.521,2.607 8.864,2.94 8.384,2.867 8.161,3.285 8.087,2.821 7.606,2.744 8.04,2.535 
			7.965,2.069 8.308,2.402 		"/>
		<polygon fill="#FFF200" points="8.244,4.095 8.392,4.541 8.881,4.541 8.484,4.816 8.636,5.265 8.243,4.989 7.848,5.265 
			7.999,4.816 7.606,4.541 8.093,4.541 		"/>
		<polygon fill="#FFF200" points="7.079,5.528 7.047,5.998 7.5,6.171 7.027,6.287 6.996,6.757 6.736,6.359 6.264,6.476 6.575,6.113 
			6.315,5.716 6.768,5.891 		"/>
	</g>
</g>
</svg>
