<?xml version="1.0" encoding="utf-8"?>
<!-- Generator: Adobe Illustrator 15.1.0, SVG Export Plug-In . SVG Version: 6.00 Build 0)  -->
<!DOCTYPE svg PUBLIC "-//W3C//DTD SVG 1.1//EN" "http://www.w3.org/Graphics/SVG/1.1/DTD/svg11.dtd" [
	<!ENTITY ns_flows "http://ns.adobe.com/Flows/1.0/">
	<!ENTITY ns_extend "http://ns.adobe.com/Extensibility/1.0/">
	<!ENTITY ns_ai "http://ns.adobe.com/AdobeIllustrator/10.0/">
	<!ENTITY ns_graphs "http://ns.adobe.com/Graphs/1.0/">
]>
<svg version="1.1" id="Layer_1" xmlns:x="&ns_extend;" xmlns:i="&ns_ai;" xmlns:graph="&ns_graphs;"
	 xmlns="http://www.w3.org/2000/svg" xmlns:xlink="http://www.w3.org/1999/xlink" xmlns:a="http://ns.adobe.com/AdobeSVGViewerExtensions/3.0/"
	 x="0px" y="0px" width="15.969px" height="10.292px" viewBox="0 0 15.969 10.292" enable-background="new 0 0 15.969 10.292"
	 xml:space="preserve">
<g>
	<path fill="#333637" d="M0.084,10.23h15.818V0.064H0.084V10.23L0.084,10.23z M15.936,10.259V10.23V10.259L15.936,10.259z
		 M0.019,10.292V0.001h15.95v10.258v0.033H0.019L0.019,10.292z"/>
	<polygon fill="#FFFFFF" points="0.052,7.9 15.936,7.9 15.936,7.114 0.052,7.114 	"/>
	<polygon fill="#ED1C24" points="0.052,7.114 15.936,7.114 15.936,6.326 0.052,6.326 	"/>
	<polygon fill="#FFFFFF" points="0.052,9.474 15.936,9.474 15.936,8.688 0.052,8.688 	"/>
	<polygon fill="#ED1C24" points="0.052,10.259 15.936,10.259 15.936,9.474 0.052,9.474 	"/>
	<polygon fill="#ED1C24" points="0.052,8.688 15.936,8.688 15.936,7.9 0.052,7.9 	"/>
	<polygon fill="#FFFFFF" points="0.052,6.326 15.936,6.326 15.936,5.541 0.052,5.541 	"/>
	<polygon fill="#ED1C24" points="0.052,3.966 15.936,3.966 15.936,3.18 0.052,3.18 	"/>
	<polygon fill="#FFFFFF" points="15.936,0.82 0.052,0.82 0.052,1.606 15.936,1.606 	"/>
	<polygon fill="#ED1C24" points="0.052,1.606 0.052,2.394 15.936,2.394 15.936,1.606 	"/>
	<polygon fill="#ED1C24" points="0.052,5.541 15.936,5.541 15.936,4.751 0.052,4.751 	"/>
	<polygon fill="#ED1C24" points="15.936,0.035 0.052,0.035 0.052,0.82 15.936,0.82 	"/>
	<polygon fill="#FFFFFF" points="0.052,3.18 15.936,3.18 15.936,2.394 0.052,2.394 	"/>
	<polygon fill="#FFFFFF" points="0.052,4.751 15.936,4.751 15.936,3.966 0.052,3.966 	"/>
	<polygon fill="#0066B3" points="6.405,5.546 0.052,5.546 0.052,0.035 6.405,0.035 	"/>
	<polygon fill="#FFFFFF" points="4.824,0.328 4.867,0.458 5.009,0.458 4.895,0.539 4.939,0.669 4.824,0.589 4.708,0.669 
		4.753,0.539 4.638,0.458 4.78,0.458 	"/>
	<polygon fill="#FFFFFF" points="4.824,1.474 4.867,1.604 5.009,1.604 4.895,1.684 4.939,1.814 4.824,1.736 4.708,1.814 
		4.753,1.684 4.638,1.604 4.78,1.604 	"/>
	<polygon fill="#FFFFFF" points="4.824,2.619 4.867,2.75 5.009,2.75 4.895,2.832 4.939,2.96 4.824,2.88 4.708,2.96 4.753,2.832 
		4.638,2.75 4.78,2.75 	"/>
	<polygon fill="#FFFFFF" points="4.824,3.791 4.867,3.921 5.009,3.921 4.895,4.001 4.939,4.132 4.824,4.052 4.708,4.132 
		4.753,4.001 4.638,3.921 4.78,3.921 	"/>
	<polygon fill="#FFFFFF" points="4.824,4.912 4.867,5.041 5.009,5.041 4.895,5.121 4.939,5.251 4.824,5.169 4.708,5.251 
		4.753,5.121 4.638,5.041 4.78,5.041 	"/>
	<polygon fill="#FFFFFF" points="3.76,0.328 3.804,0.458 3.947,0.458 3.831,0.539 3.875,0.669 3.76,0.589 3.645,0.669 3.689,0.539 
		3.574,0.458 3.716,0.458 	"/>
	<polygon fill="#FFFFFF" points="3.76,1.474 3.804,1.604 3.947,1.604 3.831,1.684 3.875,1.814 3.76,1.736 3.645,1.814 3.689,1.684 
		3.574,1.604 3.716,1.604 	"/>
	<polygon fill="#FFFFFF" points="3.76,2.619 3.804,2.75 3.947,2.75 3.831,2.832 3.875,2.96 3.76,2.88 3.645,2.96 3.689,2.832 
		3.574,2.75 3.716,2.75 	"/>
	<polygon fill="#FFFFFF" points="3.76,3.791 3.804,3.921 3.947,3.921 3.831,4.001 3.875,4.132 3.76,4.052 3.645,4.132 3.689,4.001 
		3.574,3.921 3.716,3.921 	"/>
	<polygon fill="#FFFFFF" points="3.76,4.912 3.804,5.041 3.947,5.041 3.831,5.121 3.875,5.251 3.76,5.169 3.645,5.251 3.689,5.121 
		3.574,5.041 3.716,5.041 	"/>
	<polygon fill="#FFFFFF" points="2.697,0.328 2.741,0.458 2.883,0.458 2.768,0.539 2.812,0.669 2.697,0.589 2.582,0.669 
		2.626,0.539 2.511,0.458 2.653,0.458 	"/>
	<polygon fill="#FFFFFF" points="2.697,1.474 2.741,1.604 2.883,1.604 2.768,1.684 2.812,1.814 2.697,1.736 2.582,1.814 
		2.626,1.684 2.511,1.604 2.653,1.604 	"/>
	<polygon fill="#FFFFFF" points="2.697,2.619 2.741,2.75 2.883,2.75 2.768,2.832 2.812,2.96 2.697,2.88 2.582,2.96 2.626,2.832 
		2.511,2.75 2.653,2.75 	"/>
	<polygon fill="#FFFFFF" points="2.697,3.791 2.741,3.921 2.883,3.921 2.768,4.001 2.812,4.132 2.697,4.052 2.582,4.132 
		2.626,4.001 2.511,3.921 2.653,3.921 	"/>
	<polygon fill="#FFFFFF" points="2.697,4.912 2.741,5.041 2.883,5.041 2.768,5.121 2.812,5.251 2.697,5.169 2.582,5.251 
		2.626,5.121 2.511,5.041 2.653,5.041 	"/>
	<polygon fill="#FFFFFF" points="1.633,0.328 1.677,0.458 1.819,0.458 1.704,0.539 1.749,0.669 1.633,0.589 1.519,0.669 
		1.562,0.539 1.447,0.458 1.589,0.458 	"/>
	<polygon fill="#FFFFFF" points="1.633,1.474 1.677,1.604 1.819,1.604 1.704,1.684 1.749,1.814 1.633,1.736 1.519,1.814 
		1.562,1.684 1.447,1.604 1.589,1.604 	"/>
	<polygon fill="#FFFFFF" points="1.633,2.619 1.677,2.75 1.819,2.75 1.704,2.832 1.749,2.96 1.633,2.88 1.519,2.96 1.562,2.832 
		1.447,2.75 1.589,2.75 	"/>
	<polygon fill="#FFFFFF" points="1.633,3.791 1.677,3.921 1.819,3.921 1.704,4.001 1.749,4.132 1.633,4.052 1.519,4.132 
		1.562,4.001 1.447,3.921 1.589,3.921 	"/>
	<polygon fill="#FFFFFF" points="1.633,4.912 1.677,5.041 1.819,5.041 1.704,5.121 1.749,5.251 1.633,5.169 1.519,5.251 
		1.562,5.121 1.447,5.041 1.589,5.041 	"/>
	<polygon fill="#FFFFFF" points="0.57,0.328 0.614,0.458 0.756,0.458 0.641,0.539 0.685,0.669 0.57,0.589 0.454,0.669 0.499,0.539 
		0.383,0.458 0.526,0.458 	"/>
	<polygon fill="#FFFFFF" points="0.57,1.474 0.614,1.604 0.756,1.604 0.641,1.684 0.685,1.814 0.57,1.736 0.454,1.814 0.499,1.684 
		0.383,1.604 0.526,1.604 	"/>
	<polygon fill="#FFFFFF" points="0.57,2.619 0.614,2.75 0.756,2.75 0.641,2.832 0.685,2.96 0.57,2.88 0.454,2.96 0.499,2.832 
		0.383,2.75 0.526,2.75 	"/>
	<polygon fill="#FFFFFF" points="0.57,3.791 0.614,3.921 0.756,3.921 0.641,4.001 0.685,4.132 0.57,4.052 0.454,4.132 0.499,4.001 
		0.383,3.921 0.526,3.921 	"/>
	<polygon fill="#FFFFFF" points="0.57,4.912 0.614,5.041 0.756,5.041 0.641,5.121 0.685,5.251 0.57,5.169 0.454,5.251 0.499,5.121 
		0.383,5.041 0.526,5.041 	"/>
	<polygon fill="#FFFFFF" points="5.366,0.899 5.41,1.031 5.552,1.031 5.437,1.11 5.481,1.244 5.366,1.162 5.251,1.244 5.295,1.11 
		5.18,1.031 5.322,1.031 	"/>
	<polygon fill="#FFFFFF" points="5.366,2.083 5.41,2.214 5.552,2.214 5.437,2.294 5.481,2.425 5.366,2.345 5.251,2.425 5.295,2.294 
		5.18,2.214 5.322,2.214 	"/>
	<polygon fill="#FFFFFF" points="5.355,3.242 5.399,3.373 5.542,3.373 5.427,3.453 5.471,3.583 5.355,3.501 5.241,3.583 
		5.284,3.453 5.169,3.373 5.311,3.373 	"/>
	<polygon fill="#FFFFFF" points="5.345,4.389 5.388,4.519 5.531,4.519 5.416,4.598 5.46,4.729 5.345,4.648 5.229,4.729 5.274,4.598 
		5.159,4.519 5.301,4.519 	"/>
	<polygon fill="#FFFFFF" points="4.302,0.899 4.346,1.031 4.489,1.031 4.374,1.11 4.418,1.244 4.302,1.162 4.187,1.244 4.231,1.11 
		4.117,1.031 4.259,1.031 	"/>
	<polygon fill="#FFFFFF" points="4.302,2.083 4.346,2.214 4.489,2.214 4.374,2.294 4.418,2.425 4.302,2.345 4.187,2.425 
		4.231,2.294 4.117,2.214 4.259,2.214 	"/>
	<polygon fill="#FFFFFF" points="4.292,3.242 4.336,3.373 4.478,3.373 4.363,3.453 4.407,3.583 4.292,3.501 4.177,3.583 
		4.221,3.453 4.106,3.373 4.248,3.373 	"/>
	<polygon fill="#FFFFFF" points="4.281,4.389 4.325,4.519 4.467,4.519 4.352,4.598 4.396,4.729 4.281,4.648 4.166,4.729 4.21,4.598 
		4.096,4.519 4.237,4.519 	"/>
	<polygon fill="#FFFFFF" points="3.238,0.86 3.283,0.99 3.425,0.99 3.31,1.071 3.354,1.203 3.238,1.121 3.124,1.203 3.168,1.071 
		3.053,0.99 3.195,0.99 	"/>
	<polygon fill="#FFFFFF" points="3.238,2.041 3.283,2.171 3.425,2.171 3.31,2.253 3.354,2.384 3.238,2.304 3.124,2.384 3.168,2.253 
		3.053,2.171 3.195,2.171 	"/>
	<polygon fill="#FFFFFF" points="3.229,3.201 3.272,3.332 3.415,3.332 3.299,3.414 3.343,3.542 3.229,3.462 3.113,3.542 
		3.157,3.414 3.042,3.332 3.184,3.332 	"/>
	<polygon fill="#FFFFFF" points="3.218,4.348 3.261,4.478 3.404,4.478 3.289,4.558 3.333,4.689 3.218,4.608 3.103,4.689 
		3.146,4.558 3.032,4.478 3.174,4.478 	"/>
	<polygon fill="#FFFFFF" points="2.176,0.85 2.219,0.979 2.362,0.979 2.247,1.06 2.291,1.191 2.176,1.108 2.061,1.191 2.105,1.06 
		1.989,0.979 2.132,0.979 	"/>
	<polygon fill="#FFFFFF" points="2.176,2.029 2.219,2.16 2.362,2.16 2.247,2.242 2.291,2.373 2.176,2.291 2.061,2.373 2.105,2.242 
		1.989,2.16 2.132,2.16 	"/>
	<polygon fill="#FFFFFF" points="2.166,3.189 2.209,3.32 2.351,3.32 2.236,3.401 2.28,3.533 2.166,3.451 2.05,3.533 2.094,3.401 
		1.979,3.32 2.121,3.32 	"/>
	<polygon fill="#FFFFFF" points="2.155,4.335 2.199,4.464 2.34,4.464 2.225,4.546 2.269,4.677 2.155,4.595 2.04,4.677 2.083,4.546 
		1.968,4.464 2.111,4.464 	"/>
	<polygon fill="#FFFFFF" points="1.112,0.828 1.156,0.958 1.298,0.958 1.183,1.039 1.226,1.169 1.112,1.087 0.998,1.169 
		1.041,1.039 0.926,0.958 1.068,0.958 	"/>
	<polygon fill="#FFFFFF" points="1.112,2.009 1.156,2.14 1.298,2.14 1.183,2.222 1.226,2.351 1.112,2.272 0.998,2.351 1.041,2.222 
		0.926,2.14 1.068,2.14 	"/>
	<polygon fill="#FFFFFF" points="1.101,3.169 1.145,3.3 1.288,3.3 1.172,3.38 1.216,3.511 1.101,3.431 0.987,3.511 1.03,3.38 
		0.915,3.3 1.058,3.3 	"/>
	<polygon fill="#FFFFFF" points="1.091,4.314 1.134,4.445 1.277,4.445 1.161,4.525 1.206,4.655 1.091,4.576 0.975,4.655 1.02,4.525 
		0.905,4.445 1.047,4.445 	"/>
	<polygon fill="#FFFFFF" points="5.888,0.328 5.931,0.458 6.073,0.458 5.958,0.539 6.002,0.669 5.888,0.589 5.771,0.669 
		5.816,0.539 5.702,0.458 5.843,0.458 	"/>
	<polygon fill="#FFFFFF" points="5.888,1.474 5.931,1.604 6.073,1.604 5.958,1.684 6.002,1.814 5.888,1.736 5.771,1.814 
		5.816,1.684 5.702,1.604 5.843,1.604 	"/>
	<polygon fill="#FFFFFF" points="5.888,2.619 5.931,2.75 6.073,2.75 5.958,2.832 6.002,2.96 5.888,2.88 5.771,2.96 5.816,2.832 
		5.702,2.75 5.843,2.75 	"/>
	<polygon fill="#FFFFFF" points="5.888,3.791 5.931,3.921 6.073,3.921 5.958,4.001 6.002,4.132 5.888,4.052 5.771,4.132 
		5.816,4.001 5.702,3.921 5.843,3.921 	"/>
	<polygon fill="#FFFFFF" points="5.888,4.912 5.931,5.041 6.073,5.041 5.958,5.121 6.002,5.251 5.888,5.169 5.771,5.251 
		5.816,5.121 5.702,5.041 5.843,5.041 	"/>
</g>
</svg>
